<svg enable-background="new 0 0 49 49" viewBox="0 0 49 49" xmlns="http://www.w3.org/2000/svg"><g fill="#323232"><path d="m24.5 0c-13.5 0-24.5 11-24.5 24.5s11 24.5 24.5 24.5 24.5-11 24.5-24.5-11-24.5-24.5-24.5zm0 47c-12.4 0-22.5-10.1-22.5-22.5s10.1-22.5 22.5-22.5 22.5 10.1 22.5 22.5-10.1 22.5-22.5 22.5z"/><path d="m24.5 7.6c-4.4 0-7.9 3.3-8.4 7.5h-.1v16.9h17v-16.9h-.1c-.5-4.2-4-7.5-8.4-7.5zm6.5 22.4h-13v-9.3c.3.3.7.6 1.5.6 1.3 0 2.1-.7 2.1-1.6v-.9c0-.5.4-.9.9-.9s.9.4.9.9v3.3s0 1.8 2.1 1.8 2.1-1.8 2.1-1.8v-2.2c0-.7.6-1.3 1.3-1.3s1.3.6 1.3 1.3v.1s0 .6.7.9zm-8 10.1c0 .8.7 1.5 1.5 1.5s1.5-.6 1.5-1.5v-7.1h-3z"/></g></svg>