<svg enable-background="new 0 0 49 49" height="49" viewBox="0 0 49 49" width="49" xmlns="http://www.w3.org/2000/svg"><g fill="#323232"><path d="m24.5 0c-13.531 0-24.5 10.969-24.5 24.5s10.969 24.5 24.5 24.5 24.5-10.969 24.5-24.5-10.969-24.5-24.5-24.5zm0 47c-12.407 0-22.5-10.094-22.5-22.5 0-12.407 10.093-22.5 22.5-22.5 12.406 0 22.5 10.093 22.5 22.5 0 12.406-10.094 22.5-22.5 22.5z"/><path d="m28.938 13.125c0-2.774-2.257-5.031-5.031-5.031s-5.031 2.257-5.031 5.031v14.64c-1.281 1.322-2 3.067-2 4.923 0 3.929 3.196 7.125 7.125 7.125s7.125-3.196 7.125-7.125c0-1.942-.802-3.791-2.188-5.126zm.187 19.563c0 2.83-2.295 5.125-5.125 5.125-2.831 0-5.125-2.295-5.125-5.125 0-1.647.792-3.098 2-4.035v-15.528c0-1.674 1.357-3.031 3.031-3.031s3.031 1.357 3.031 3.031v15.372c1.32.928 2.188 2.455 2.188 4.191z"/><path d="m25 29.559v-16.371c0-.552-.447-1-1-1-.552 0-1 .448-1 1v16.371c-1.163.413-2 1.512-2 2.816 0 1.657 1.343 3 3 3s3-1.343 3-3c0-1.305-.837-2.403-2-2.816z"/><path d="m31 12h6v2h-6z"/><path d="m31 16h6v2h-6z"/><path d="m31 20h6v2h-6z"/><path d="m31 24h6v2h-6z"/></g></svg>