<svg enable-background="new 0 0 49 49" height="49" viewBox="0 0 49 49" width="49" xmlns="http://www.w3.org/2000/svg"><g fill="#323232"><path d="m24.5 0c-13.531 0-24.5 10.969-24.5 24.5s10.969 24.5 24.5 24.5 24.5-10.969 24.5-24.5-10.969-24.5-24.5-24.5zm0 47c-12.407 0-22.5-10.094-22.5-22.5 0-12.407 10.093-22.5 22.5-22.5 12.406 0 22.5 10.093 22.5 22.5 0 12.406-10.094 22.5-22.5 22.5z"/><path d="m24.5 7.625c-4.355 0-7.94 3.278-8.436 7.5h-.064v16.917h17v-16.917h-.063c-.497-4.222-4.082-7.5-8.437-7.5zm6.5 22.417h-13v-9.257c.275.337.705.631 1.542.631 1.292 0 2.125-.713 2.125-1.625 0-.375 0-.875 0-.875 0-.472.382-.854.854-.854s.854.382.854.854c0 .009-.005.017-.005.025 0 .007.005.01.005.017v3.292s-.031 1.833 2.125 1.833c2.109 0 2.125-1.75 2.125-1.75v-2.25h.001c0-.002-.001-.003-.001-.005 0-.742.602-1.344 1.344-1.344s1.344.602 1.344 1.344c0 .031.021.088.021.088s.034.609.667.894v8.982z"/><path d="m23 40.125c0 .828.671 1.5 1.5 1.5.828 0 1.5-.672 1.5-1.5v-7.125h-3z"/></g></svg>